<svg xmlns="http://www.w3.org/2000/svg" width="14" height="13" viewBox="0 0 14 13"><path fill="#a5a5a5" d="M13.792 3.606l-2.535 2.577c-.43.406-.6-.102-.6-.102l-.007-1.567H9.2c-.479 0-.766.754-.766.754s-2.932 4.66-3.363 5.117l-.022.023a5.396 5.396 0 0 1-.887.739H.82c-.813 0-.765-.762-.765-.762V9.4c0-.712.813-.762.813-.762h2.16c.288 0 .862-.728.862-.728l3.349-4.879c.335-.712 1.196-1.035 1.196-1.035l2.264-.008V.193c0-.407.383-.051.383-.051l2.807 2.854c.383.203-.096.61-.096.61zM.03 2.7s-.048-.712.622-.712h3.19s.383.331.814.738l.908 1.169-.908 1.626-.814-.711s-.287-.254-.67-.254H.875s-.813-.102-.813-.763zm8.022 4.65l.335.763s.335.533.813.533h1.5V7.299s-.138-.66.636-.102l2.49 2.39s.383.306.048.61l-2.57 2.38s-.605.824-.605.178v-1.592H8.53s-.67-.356-.957-.864l-.91-.965z"/></svg>