<svg xmlns="http://www.w3.org/2000/svg" width="15" height="13" viewBox="0 0 15 13"><g><g><path fill="#a5a5a5" d="M15.022 6.5c0 2.651-1.991 4.84-4.565 5.16v-1.314a3.905 3.905 0 0 0 3.26-3.846 3.905 3.905 0 0 0-3.26-3.846V1.34c2.574.32 4.565 2.508 4.565 5.16zm-1.997 0a2.604 2.604 0 0 1-2.568 2.6V7.8a1.302 1.302 0 0 0 1.263-1.3c0-.705-.562-1.278-1.263-1.3V3.9a2.604 2.604 0 0 1 2.568 2.6zM2.63 3.9L9.153 0v13L2.63 9.1H1.327C.607 9.1.022 8.634.022 8.06V4.94c0-.575.584-1.04 1.305-1.04z"/></g></g></svg>